<svg
        width="172"
        height="104"
        viewBox="0 0 172 104"
        fill="none"
        xmlns="http://www.w3.org/2000/svg"
        class="block w-104 md:w-132 lg:w-auto h-auto">
    <path
            d="M85.9825 0L84.5624 1.42329L52 34.0582H57.6821C65.3929 26.3302 83.9341 7.74683 85.9889 5.68785C88.0144 7.70753 106.308
                        25.9541 114.432 34.0582H120.128L85.9825 0ZM84.6339 15.0346L65.6541 34.0582H71.3358C76.0937 29.2889 84.344 21.0191 86.0605
                        19.2991C87.7462 20.9791 95.9005 29.1091 100.865 34.0582H106.562L86.0528 13.6113L84.6339 15.0346ZM84.7565 27.7973L78.4908
                        34.0582H84.1818C84.92 33.3203 85.6352 32.6052 86.1741 32.0663C86.7041 32.5988 87.4167 33.3124 88.1574
                        34.0582H93.8354L86.1805 26.3736L84.7565 27.7973Z"
            fill="currentColor"></path>
    <path
            d="M0 38.1584H2.57653C2.74065 38.6072 3.06569 39.1424 3.55413 39.7598L8.66186 46.1651H8.65362V41.3057C8.65362 39.9565
                        8.51951 38.9067 8.25195 38.1584H10.5469C10.28 38.9316 10.1465 39.8307 10.1465 40.8556V46.0246C10.1465 47.3215 10.28
                        48.2946 10.5469 48.9473H8.50866C8.35794 48.5245 7.92566 47.8515 7.20791 46.9237L2.95139 41.5305H2.95453V45.9122C2.95453
                        47.1702 3.08864 48.1817 3.35555 48.9473H1.05999C1.32815 48.174 1.4616 47.1632 1.4616 45.9122V39.634C1.13852 39.2017
                        0.651323 38.7107 0 38.1584Z"
            fill="currentColor"></path>
    <path
            d="M22.5485 48.9473H19.9808H19.9706C19.9706 48.347 19.8206 47.6919 19.5166 46.9856L18.9119 45.575H15.1617L14.5883
                        46.8177C14.2486 47.5661 14.0775 48.2103 14.0775 48.7506C14.0775 48.8138 14.0775 48.8808 14.0775 48.9473H11.4243C11.8138
                        48.5188 12.1854 47.9536 12.5417 47.2475L17.1693 38.0466H17.2663L20.9189 46.0112C21.4118 47.1198 21.9546 48.0979 22.5485
                        48.9473ZM18.3577 44.3069V44.3114L17.1342 41.4092L15.7702 44.3114V44.3069H18.3577Z"
            fill="currentColor"></path>
    <path
            d="M22.8958 40.021L23.6333 38.1584H31.5972L30.8572 39.8448C30.1062 39.4373 29.1542 39.2343 28.0009
                        39.2343V46.3637C28.0009 47.3413 28.135 48.202 28.4026 48.9473H25.9786C26.245 48.135 26.3803 47.2628 26.3803
                        46.3273V39.2343C25.5234 39.2343 24.3606 39.4955 22.8958 40.021Z"
            fill="currentColor"></path>
    <path
            d="M32.4956 48.9473C32.7632 48.2857 32.8973 47.2749 32.8973 45.9122V40.7917C32.8973 39.6915 32.7632 38.8141 32.4956
                        38.1584H34.9196C34.6527 38.9316 34.5173 39.8448 34.5173 40.8977V45.9889C34.5173 47.1082 34.6527 48.0942 34.9196
                        48.9473H32.4956Z"
            fill="currentColor"></path>
    <path
            d="M36.196 43.4685C36.196 42.0573 36.7503 40.8039 37.8601 39.7036C38.9757 38.5983 40.3709 38.0466 42.0464 38.0466C43.6109
                        38.0466 44.888 38.5842 45.8809 39.6615C46.8725 40.7374 47.3707 42.0356 47.3707 43.5521C47.3707 45.116 46.84 46.4237
                        45.7826 47.4773C44.7296 48.5309 43.3944 49.059 41.7795 49.059C40.1927 49.059 38.8652 48.5111 37.7975 47.4154C36.7293
                        46.3133 36.196 44.9998 36.196 43.4685ZM37.9304 43.2156C37.9304 44.5381 38.3499 45.6453 39.1883 46.5393C40.026 47.4249
                        41.0209 47.8707 42.1735 47.8707C43.1192 47.8707 43.9321 47.5022 44.6089 46.7634C45.2948 46.0246 45.6363 45.091 45.6363
                        43.9583C45.6363 42.632 45.2334 41.5113 44.4276 40.6008C43.6218 39.6902 42.6422 39.2343 41.4845 39.2343C40.4641 39.2343
                        39.6168 39.6181 38.9424 40.3824C38.2669 41.1448 37.9304 42.0899 37.9304 43.2156Z"
            fill="currentColor"></path>
    <path
            d="M47.9543 38.1584H50.5309C50.6956 38.6072 51.0207 39.1424 51.5072 39.7598L56.6169 46.1651H56.6067V41.3057C56.6067
                        39.9565 56.4733 38.9067 56.2064 38.1584H58.5019C58.2343 38.9316 58.0997 39.8307 58.0997 40.8556V46.0246C58.0997 47.3215
                        58.2343 48.2946 58.5019 48.9473H56.463C56.3129 48.5245 55.8794 47.8515 55.1636 46.9237L50.9045
                        41.5305H50.9089V45.9122C50.9089 47.1702 51.0424 48.1817 51.3093 48.9473H49.0138C49.2812 48.174 49.4147 47.1632 49.4147
                        45.9122V39.634H49.4154C49.0935 39.2017 48.6051 38.7107 47.9543 38.1584Z"
            fill="currentColor"></path>
    <path
            d="M70.5039 48.9473H67.9337H67.9267C67.9267 48.347 67.7741 47.6919 67.4694 46.9856L66.8667 45.575H63.1165L62.5418
                        46.8177C62.2021 47.5661 62.0322 48.2103 62.0322 48.7506C62.0322 48.8138 62.0322 48.8808 62.0322 48.9473H59.3784C59.7673
                        48.5188 60.1389 47.9536 60.4946 47.2475L65.1235 38.0466H65.2218L68.8743 46.0112C69.3647 47.1198 69.9081 48.0979 70.5039
                        48.9473ZM66.3112 44.3069V44.3114L65.0896 41.4092L63.7257 44.3114V44.3069H66.3112Z"
            fill="currentColor"></path>
    <path
            d="M71.5723 38.1584H73.9968C73.7299 38.9725 73.5958 40.0242 73.5958 41.3089V47.8707C75.2062 47.7627 76.5912 47.4575
                        77.754 46.9563L76.8626 48.9473H71.5723C71.8398 48.3144 71.9739 47.2609 71.9739 45.7864V41.0446C71.9739 39.7854 71.8398
                        38.8231 71.5723 38.1584Z"
            fill="currentColor"></path>
    <path
            d="M82.6077 38.1584H85.0571C85.195 38.5842 85.4658 39.058 85.8655 39.5772L88.9051 43.3421L91.7556 39.7183C91.9905 39.4278
                        92.2128 39.1436 92.426 38.8677C92.6406 38.5913 92.7887 38.355 92.8666 38.1584H95.0147C94.6711 38.5332 94.4438 38.9067
                        94.3302 39.2828C94.2203 39.6557 94.1641 40.369 94.1641 41.4175V46.25C94.1641 47.3253 94.2982 48.2244 94.5664
                        48.9473H92.1438C92.4094 48.2525 92.5435 47.3535 92.5435 46.25V41.1563L88.9051 45.6881L85.2806
                        41.1563H85.2883V46.4748C85.2883 47.3496 85.4224 48.174 85.6893 48.9473H83.2654C83.5323 48.1874 83.6664 47.3253 83.6664
                        46.3618V39.3307L82.6077 38.1584Z"
            fill="currentColor"></path>
    <path
            d="M95.9902 38.1584H98.4154C98.1472 38.9495 98.0132 39.7962 98.0132 40.6991V44.4231C98.0132 45.6645 98.2775 46.5489
                        98.8063 47.0757C99.3401 47.6063 99.9825 47.8707 100.737 47.8707C101.235 47.8707 101.715 47.7046 102.174 47.372C102.632
                        47.0342 102.949 46.6089 103.129 46.0955C103.207 45.8605 103.245 45.4787 103.245 44.9518V40.7055C103.245 39.6723 103.113
                        38.8231 102.846 38.1584H105.268C105.003 38.7905 104.867 39.6206 104.867 40.6448V45.8337C104.867 46.9958 105.003 48.0328
                        105.268 48.9473H103.245V47.886C102.878 48.2066 102.4 48.4805 101.814 48.711C101.234 48.9422 100.593 49.059 99.8982
                        49.059C98.8024 49.059 97.9403 48.6887 97.3184 47.9556C96.7016 47.2142 96.3913 46.151 96.3913 44.7603V40.6876C96.3913
                        39.6806 96.2571 38.8371 95.9902 38.1584Z"
            fill="currentColor"></path>
    <path
            d="M106.906 46.4748C107.653 47.3515 108.363 47.7896 109.042 47.7896C109.487 47.7896 109.872 47.6427 110.195
                        47.347C110.519 47.052 110.678 46.7072 110.678 46.3075C110.678 45.8311 110.48 45.4448 110.083 45.1492C109.685 44.8516
                        109.207 44.5279 108.649 44.1818C107.843 43.6243 107.277 43.1301 106.949 42.6939C106.622 42.252 106.456 41.7584 106.456
                        41.2106C106.456 40.3223 106.765 39.5746 107.377 38.9661C107.996 38.3524 108.756 38.0466 109.66 38.0466C110.011 38.0466
                        110.374 38.0881 110.75 38.173C111.129 38.2567 111.495 38.3831 111.852 38.5517V40.1812C111.204 39.6462 110.55 39.3793
                        109.89 39.3793C109.381 39.3793 108.969 39.5204 108.654 39.7994C108.346 40.0803 108.19 40.4296 108.19 40.8511C108.19
                        41.2278 108.34 41.5675 108.636 41.8785C108.931 42.1869 109.401 42.5394 110.052 42.9366C110.935 43.4889 111.547 43.9755
                        111.893 44.3976C112.241 44.8126 112.412 45.3426 112.412 45.9825C112.412 46.9051 112.075 47.6504 111.401 48.2161C110.733
                        48.778 109.851 49.059 108.753 49.059C108.074 49.059 107.459 48.9651 106.906 48.778V46.4748Z"
            fill="currentColor"></path>
    <path
            d="M113.338 38.1584H119.181L118.347 39.8448C117.995 39.7093 117.62 39.5759 117.217 39.4418C116.821 39.3039 116.311
                        39.2343 115.69 39.2343L115.361 39.2426V42.9276H118.747L117.808 44.4365C116.982 44.1467 116.292 44.0024 115.732
                        44.0024H115.361V47.8707H115.859C116.916 47.8707 118.232 47.6293 119.807 47.1491L119.021 48.9473H113.338C113.604 48.0328
                        113.739 47.0501 113.739 45.9972V41.0663C113.739 39.9469 113.604 38.9782 113.338 38.1584Z"
            fill="currentColor"></path>
    <path
            d="M120.558 38.1584H122.982C122.715 38.9495 122.581 39.7962 122.581 40.6991V44.4231C122.581 45.6645 122.845 46.5489
                        123.374 47.0757C123.906 47.6063 124.55 47.8707 125.304 47.8707C125.803 47.8707 126.283 47.7046 126.739 47.372C127.201
                        47.0342 127.517 46.6089 127.696 46.0955C127.773 45.8605 127.814 45.4787 127.814 44.9518V40.7055C127.814 39.6723 127.679
                        38.8231 127.413 38.1584H129.836C129.569 38.7905 129.435 39.6206 129.435 40.6448V45.8337C129.435 46.9958 129.569 48.0328
                        129.836 48.9473H127.814V47.886C127.444 48.2066 126.969 48.4805 126.381 48.711C125.802 48.9422 125.162 49.059 124.464
                        49.059C123.369 49.059 122.508 48.6887 121.887 47.9556C121.269 47.2142 120.959 46.151 120.959 44.7603V40.6876C120.959
                        39.6806 120.823 38.8371 120.558 38.1584Z"
            fill="currentColor"></path>
    <path
            d="M130.687 38.1584H133.137C133.278 38.5842 133.546 39.058 133.947 39.5772L136.985 43.3421L139.838 39.7183C140.069
                        39.4278 140.294 39.1436 140.507 38.8677C140.723 38.5913 140.869 38.355 140.949 38.1584H143.096C142.754 38.5332 142.524
                        38.9067 142.415 39.2828C142.3 39.6557 142.247 40.369 142.247 41.4175V46.25C142.247 47.3253 142.38 48.2244 142.648
                        48.9473H140.223C140.488 48.2525 140.624 47.3535 140.624 46.25V41.1563L136.985 45.6881L133.363
                        41.1563H133.368V46.4748C133.368 47.3496 133.503 48.174 133.769 48.9473H131.346C131.612 48.1874 131.747 47.3253 131.747
                        46.3618V39.3307H131.749L130.687 38.1584Z"
            fill="currentColor"></path>
    <path
            d="M148.701 43.4685C148.701 42.0573 149.258 40.8039 150.367 39.7036C151.48 38.5983 152.875 38.0466 154.549
                        38.0466C156.115 38.0466 157.394 38.5842 158.384 39.6615C159.378 40.7374 159.873 42.0356 159.873 43.5521C159.873 45.116
                        159.346 46.4237 158.286 47.4773C157.232 48.5309 155.898 49.059 154.283 49.059C152.695 49.059 151.37 48.5111 150.303
                        47.4154C149.235 46.3133 148.701 44.9998 148.701 43.4685ZM150.434 43.2156C150.434 44.5381 150.853 45.6453 151.693
                        46.5393C152.529 47.4249 153.525 47.8707 154.677 47.8707C155.623 47.8707 156.435 47.5022 157.115 46.7634C157.799 46.0246
                        158.139 45.091 158.139 43.9583C158.139 42.632 157.737 41.5113 156.932 40.6008C156.127 39.6902 155.145 39.2343 153.988
                        39.2343C152.969 39.2343 152.12 39.6181 151.446 40.3824C150.771 41.1448 150.434 42.0899 150.434 43.2156Z"
            fill="currentColor"></path>
    <path
            d="M161.036 48.9473C161.303 47.8981 161.437 46.9001 161.437 45.9544V40.8422C161.437 39.7879 161.303 38.8933 161.036
                        38.1584H166.992L166.101 39.7324C165.702 39.5612 165.305 39.4373 164.909 39.3588C164.512 39.2758 163.895 39.2343 163.056
                        39.2343V39.2426V43.0394H166.638L165.804 44.5968C165.145 44.275 164.414 44.1141 163.604 44.1141H163.056V46.151C163.056
                        47.2749 163.194 48.2066 163.46 48.9473H161.036Z"
            fill="currentColor"></path>
    <path
            d="M26.4775 53.367H29.3574C29.5241 53.8701 29.8466 54.4282 30.3248 55.0412L33.9192 59.4868L37.2901 55.2072C37.5679 54.865
                        37.8341 54.5303 38.0896 54.2047C38.3449 53.8778 38.5193 53.5994 38.6138 53.367H41.1374C40.7261 53.8088 40.4535 54.2507
                        40.3206 54.6938C40.1872 55.1357 40.1202 55.9761 40.1202 57.2148V62.9196C40.1202 64.1904 40.2747 65.2516 40.5843
                        66.1035H37.7543C38.064 65.2848 38.2186 64.2236 38.2186 62.9196V56.9084H38.2167L33.9192 62.2555L29.6384
                        56.9084H29.6397V63.1853C29.6397 64.2185 29.7942 65.1903 30.1039 66.1035H27.2738C27.5829 65.2069 27.7381 64.1904 27.7381
                        63.0525V54.7513H27.7304L26.4775 53.367Z"
            fill="currentColor"></path>
    <path
            d="M42.4087 53.367H49.2859L48.3127 55.3566C47.8976 55.197 47.4513 55.0361 46.9756 54.8764C46.5049 54.7092 45.9016 54.6274
                        45.1653 54.6274H44.7745V59.0053H48.7769L47.6799 60.7741C46.7004 60.4357 45.8792 60.2658 45.2145
                        60.2658H44.7745V64.8429H45.3639C46.6141 64.8429 48.1722 64.5543 50.0368 63.9809L49.1224 66.1035H42.4087C42.7184 65.0256
                        42.8735 63.8647 42.8735 62.6208V56.7998C42.8735 55.478 42.7184 54.3337 42.4087 53.367Z"
            fill="currentColor"></path>
    <path
            d="M50.491 66.1035C51.2706 65.2248 51.9424 64.3091 52.5069 63.359L54.7718 59.5851H54.7712L52.4871 55.8713C51.9999 55.0808
                        51.3709 54.2456 50.6015 53.367H53.5062C53.6333 53.9978 53.9302 54.699 54.3957 55.4729L55.8171 57.8444H55.8261L57.2622
                        55.4486C57.7098 54.7194 57.9869 54.0246 58.0917 53.367H60.9715C59.8929 54.8535 59.0954 56.022 58.5821 56.8738L56.9218
                        59.6349H56.9225L58.5437 62.4216C59.469 63.986 60.3885 65.212 61.3035 66.1035H57.9869C57.9703 65.4176 57.7232 64.6718
                        57.2474 63.8647L55.8267 61.4765H55.8184L54.035 64.4292C53.6301 65.092 53.429 65.6501 53.429 66.1035H50.491Z"
            fill="currentColor"></path>
    <path
            d="M62.481 66.1035C62.7906 65.3231 62.9451 64.129 62.9451 62.5212V56.4754C62.9451 55.1779 62.7906 54.1408 62.481
                        53.367H65.311C65.0013 54.2788 64.8467 55.3566 64.8467 56.6006V62.6118C64.8467 63.9336 65.0013 65.0971 65.311
                        66.1035H62.481Z"
            fill="currentColor"></path>
    <path
            d="M77.0436 53.7233L77.0494 55.7551C75.9262 55.1204 74.8228 54.8037 73.7385 54.8037C72.2341 54.8037 71.0362 55.2878
                        70.146 56.2545C69.261 57.2213 68.8185 58.4051 68.8185 59.8099C68.8185 61.1905 69.2438 62.3449 70.0956 63.2721C70.9468
                        64.2019 72.1019 64.6654 73.561 64.6654C74.9767 64.6654 76.2257 64.2159 77.3093 63.3168L77.2231 65.2912C76.0335 65.9208
                        74.6855 66.2363 73.1804 66.2363C71.2207 66.2363 69.6595 65.6297 68.4973 64.419C67.3409 63.2096 66.7617 61.7332 66.7617
                        59.9913C66.7617 58.0232 67.498 56.4065 68.9692 55.1408C70.4462 53.8702 72.2284 53.2341 74.3138 53.2341C75.188 53.2341
                        76.0979 53.3964 77.0436 53.7233Z"
            fill="currentColor"></path>
    <path
            d="M90.6791 66.1035H87.6498C87.6498 65.3959 87.4697 64.6246 87.1096 63.7893L86.3982 62.1228H81.9539L81.2707
                        63.5901C80.8671 64.4751 80.6641 65.235 80.6641 65.8697C80.6641 65.9489 80.6641 66.0255 80.6641 66.1035H77.5444C78.0029
                        65.6003 78.4429 64.9311 78.8624 64.0959L84.3267 53.2341H84.443L88.7544 62.6374C89.3355 63.9477 89.9766 65.1022 90.6791
                        66.1035ZM85.7418 60.6196V60.6298L84.2999 57.2059L82.678 60.6298V60.6196H85.7418Z"
            fill="currentColor"></path>
    <path
            d="M90.9714 53.367H94.0007C94.1948 53.8969 94.5793 54.5278 95.1553 55.2571L101.201 62.8187H101.187V57.0807C101.187
                        55.4895 101.032 54.2507 100.722 53.367H103.419C103.112 54.2788 102.956 55.34 102.956 56.5507V62.654C102.956 64.1853
                        103.112 65.3346 103.419 66.1035H101.032C100.855 65.6053 100.343 64.8098 99.4948 63.7152L94.4617
                        57.3476H94.4656V62.5212C94.4656 64.0077 94.6201 65.2018 94.9292 66.1035H92.232C92.5423 65.1903 92.6956 63.9962 92.6956
                        62.5212V55.1077H92.7007C92.3175 54.5993 91.7416 54.0195 90.9714 53.367Z"
            fill="currentColor"></path>
    <path
            d="M123.232 66.1035H120.203C120.203 65.3959 120.024 64.6246 119.664 63.7893L118.951 62.1228H114.507L113.825
                        63.5901C113.42 64.4751 113.219 65.235 113.219 65.8697C113.219 65.9489 113.219 66.0255 113.219 66.1035H110.099C110.557
                        65.6003 110.996 64.9311 111.417 64.0959L116.88 53.2341H116.998L121.309 62.6374C121.889 63.9477 122.531 65.1022 123.232
                        66.1035ZM118.296 60.6196V60.6298L116.853 57.2059L115.231 60.6298V60.6196H118.296Z"
            fill="currentColor"></path>
    <path
            d="M124.388 66.1035C124.697 64.986 124.852 63.9247 124.852 62.9196V56.1523C124.852 55.0744 124.697 54.146 124.388
                        53.367H126.963C128.43 53.367 129.601 53.7118 130.48 54.4026C131.357 55.0936 131.795 55.9684 131.795 57.0232C131.795
                        58.4766 130.992 59.6056 129.385 60.4063C130.32 62.0972 131.727 63.9962 133.607 66.1035H131.856C130.922 65.3129 130.187
                        64.599 129.657 63.963C129.126 63.3232 128.159 62.0895 126.754 60.2658V63.5825C126.754 64.3628 126.909 65.2018 127.218
                        66.1035H124.388ZM126.754 54.4499V60.0666C127.74 59.7843 128.485 59.4281 128.987 58.9977C129.489 58.5622 129.739 57.967
                        129.739 57.2174C129.739 56.4601 129.466 55.8343 128.92 55.3362C128.374 54.8394 127.652 54.5444 126.754 54.4499Z"
            fill="currentColor"></path>
    <path
            d="M134.105 55.5559L134.968 53.367H144.366L143.502 55.3566C142.612 54.8701 141.486 54.6274 140.119
                        54.6274V63.0525C140.119 64.207 140.274 65.2248 140.584 66.1035H137.754C138.063 65.1456 138.219 64.1163 138.219
                        63.0103V54.6274C137.206 54.6274 135.836 54.9365 134.105 55.5559Z"
            fill="currentColor"></path>
    <path
            d="M86.1464 104L87.5665 102.576L120.129 69.9411H114.446C106.736 77.6694 88.1935 96.2531 86.1387 98.3118C84.1145 96.2921
                        65.8207 78.0455 57.6958 69.9411H52L86.1464 104ZM87.495 88.9648L106.475 69.9411H100.792C96.0349 74.711 87.7836 82.9803
                        86.0672 84.7005C84.3827 83.0205 76.2281 74.8905 71.264 69.9411H65.5672L86.0749 90.3887L87.495 88.9648ZM87.3724
                        76.2027L93.6378 69.9411H87.9471C87.2089 70.6793 86.4937 71.3945 85.9548 71.9334C85.4235 71.4008 84.7122 70.6869 83.9702
                        69.9411H78.2928L85.9472 77.626L87.3724 76.2027Z"
            fill="currentColor"></path>
</svg>